<?xml version="1.0" encoding="utf-8" standalone="no"?>
<!DOCTYPE svg PUBLIC "-//W3C//DTD SVG 1.1//EN"
  "http://www.w3.org/Graphics/SVG/1.1/DTD/svg11.dtd">
<!-- Created with matplotlib (https://matplotlib.org/) -->
<svg height="360pt" version="1.1" viewBox="0 0 1080 360" width="1080pt" xmlns="http://www.w3.org/2000/svg" xmlns:xlink="http://www.w3.org/1999/xlink">
 <defs>
  <style type="text/css">
*{stroke-linecap:butt;stroke-linejoin:round;}
  </style>
 </defs>
 <g id="figure_1">
  <g id="patch_1">
   <path d="M 0 360 
L 1080 360 
L 1080 0 
L 0 0 
z
" style="fill:#ffffff;"/>
  </g>
  <g id="axes_1">
   <g id="patch_2">
    <path d="M 135 315 
L 972 315 
L 972 43.2 
L 135 43.2 
z
" style="fill:#e5e5e5;"/>
   </g>
   <g id="matplotlib.axis_1">
    <g id="xtick_1">
     <g id="line2d_1">
      <path clip-path="url(#p3562138bd5)" d="M 173.045455 315 
L 173.045455 43.2 
" style="fill:none;stroke:#ffffff;stroke-linecap:square;stroke-width:0.8;"/>
     </g>
     <g id="line2d_2">
      <defs>
       <path d="M 0 0 
L 0 3.5 
" id="mae68932c5f" style="stroke:#555555;stroke-width:0.8;"/>
      </defs>
      <g>
       <use style="fill:#555555;stroke:#555555;stroke-width:0.8;" x="173.045455" xlink:href="#mae68932c5f" y="315"/>
      </g>
     </g>
     <g id="text_1">
      <!-- 0.0 -->
      <defs>
       <path d="M 31.78125 66.40625 
Q 24.171875 66.40625 20.328125 58.90625 
Q 16.5 51.421875 16.5 36.375 
Q 16.5 21.390625 20.328125 13.890625 
Q 24.171875 6.390625 31.78125 6.390625 
Q 39.453125 6.390625 43.28125 13.890625 
Q 47.125 21.390625 47.125 36.375 
Q 47.125 51.421875 43.28125 58.90625 
Q 39.453125 66.40625 31.78125 66.40625 
z
M 31.78125 74.21875 
Q 44.046875 74.21875 50.515625 64.515625 
Q 56.984375 54.828125 56.984375 36.375 
Q 56.984375 17.96875 50.515625 8.265625 
Q 44.046875 -1.421875 31.78125 -1.421875 
Q 19.53125 -1.421875 13.0625 8.265625 
Q 6.59375 17.96875 6.59375 36.375 
Q 6.59375 54.828125 13.0625 64.515625 
Q 19.53125 74.21875 31.78125 74.21875 
z
" id="DejaVuSans-48"/>
       <path d="M 10.6875 12.40625 
L 21 12.40625 
L 21 0 
L 10.6875 0 
z
" id="DejaVuSans-46"/>
      </defs>
      <g style="fill:#555555;" transform="translate(165.093892 329.598437)scale(0.1 -0.1)">
       <use xlink:href="#DejaVuSans-48"/>
       <use x="63.623047" xlink:href="#DejaVuSans-46"/>
       <use x="95.410156" xlink:href="#DejaVuSans-48"/>
      </g>
     </g>
    </g>
    <g id="xtick_2">
     <g id="line2d_3">
      <path clip-path="url(#p3562138bd5)" d="M 325.532246 315 
L 325.532246 43.2 
" style="fill:none;stroke:#ffffff;stroke-linecap:square;stroke-width:0.8;"/>
     </g>
     <g id="line2d_4">
      <g>
       <use style="fill:#555555;stroke:#555555;stroke-width:0.8;" x="325.532246" xlink:href="#mae68932c5f" y="315"/>
      </g>
     </g>
     <g id="text_2">
      <!-- 0.1 -->
      <defs>
       <path d="M 12.40625 8.296875 
L 28.515625 8.296875 
L 28.515625 63.921875 
L 10.984375 60.40625 
L 10.984375 69.390625 
L 28.421875 72.90625 
L 38.28125 72.90625 
L 38.28125 8.296875 
L 54.390625 8.296875 
L 54.390625 0 
L 12.40625 0 
z
" id="DejaVuSans-49"/>
      </defs>
      <g style="fill:#555555;" transform="translate(317.580684 329.598437)scale(0.1 -0.1)">
       <use xlink:href="#DejaVuSans-48"/>
       <use x="63.623047" xlink:href="#DejaVuSans-46"/>
       <use x="95.410156" xlink:href="#DejaVuSans-49"/>
      </g>
     </g>
    </g>
    <g id="xtick_3">
     <g id="line2d_5">
      <path clip-path="url(#p3562138bd5)" d="M 478.019038 315 
L 478.019038 43.2 
" style="fill:none;stroke:#ffffff;stroke-linecap:square;stroke-width:0.8;"/>
     </g>
     <g id="line2d_6">
      <g>
       <use style="fill:#555555;stroke:#555555;stroke-width:0.8;" x="478.019038" xlink:href="#mae68932c5f" y="315"/>
      </g>
     </g>
     <g id="text_3">
      <!-- 0.2 -->
      <defs>
       <path d="M 19.1875 8.296875 
L 53.609375 8.296875 
L 53.609375 0 
L 7.328125 0 
L 7.328125 8.296875 
Q 12.9375 14.109375 22.625 23.890625 
Q 32.328125 33.6875 34.8125 36.53125 
Q 39.546875 41.84375 41.421875 45.53125 
Q 43.3125 49.21875 43.3125 52.78125 
Q 43.3125 58.59375 39.234375 62.25 
Q 35.15625 65.921875 28.609375 65.921875 
Q 23.96875 65.921875 18.8125 64.3125 
Q 13.671875 62.703125 7.8125 59.421875 
L 7.8125 69.390625 
Q 13.765625 71.78125 18.9375 73 
Q 24.125 74.21875 28.421875 74.21875 
Q 39.75 74.21875 46.484375 68.546875 
Q 53.21875 62.890625 53.21875 53.421875 
Q 53.21875 48.921875 51.53125 44.890625 
Q 49.859375 40.875 45.40625 35.40625 
Q 44.1875 33.984375 37.640625 27.21875 
Q 31.109375 20.453125 19.1875 8.296875 
z
" id="DejaVuSans-50"/>
      </defs>
      <g style="fill:#555555;" transform="translate(470.067476 329.598437)scale(0.1 -0.1)">
       <use xlink:href="#DejaVuSans-48"/>
       <use x="63.623047" xlink:href="#DejaVuSans-46"/>
       <use x="95.410156" xlink:href="#DejaVuSans-50"/>
      </g>
     </g>
    </g>
    <g id="xtick_4">
     <g id="line2d_7">
      <path clip-path="url(#p3562138bd5)" d="M 630.50583 315 
L 630.50583 43.2 
" style="fill:none;stroke:#ffffff;stroke-linecap:square;stroke-width:0.8;"/>
     </g>
     <g id="line2d_8">
      <g>
       <use style="fill:#555555;stroke:#555555;stroke-width:0.8;" x="630.50583" xlink:href="#mae68932c5f" y="315"/>
      </g>
     </g>
     <g id="text_4">
      <!-- 0.3 -->
      <defs>
       <path d="M 40.578125 39.3125 
Q 47.65625 37.796875 51.625 33 
Q 55.609375 28.21875 55.609375 21.1875 
Q 55.609375 10.40625 48.1875 4.484375 
Q 40.765625 -1.421875 27.09375 -1.421875 
Q 22.515625 -1.421875 17.65625 -0.515625 
Q 12.796875 0.390625 7.625 2.203125 
L 7.625 11.71875 
Q 11.71875 9.328125 16.59375 8.109375 
Q 21.484375 6.890625 26.8125 6.890625 
Q 36.078125 6.890625 40.9375 10.546875 
Q 45.796875 14.203125 45.796875 21.1875 
Q 45.796875 27.640625 41.28125 31.265625 
Q 36.765625 34.90625 28.71875 34.90625 
L 20.21875 34.90625 
L 20.21875 43.015625 
L 29.109375 43.015625 
Q 36.375 43.015625 40.234375 45.921875 
Q 44.09375 48.828125 44.09375 54.296875 
Q 44.09375 59.90625 40.109375 62.90625 
Q 36.140625 65.921875 28.71875 65.921875 
Q 24.65625 65.921875 20.015625 65.03125 
Q 15.375 64.15625 9.8125 62.3125 
L 9.8125 71.09375 
Q 15.4375 72.65625 20.34375 73.4375 
Q 25.25 74.21875 29.59375 74.21875 
Q 40.828125 74.21875 47.359375 69.109375 
Q 53.90625 64.015625 53.90625 55.328125 
Q 53.90625 49.265625 50.4375 45.09375 
Q 46.96875 40.921875 40.578125 39.3125 
z
" id="DejaVuSans-51"/>
      </defs>
      <g style="fill:#555555;" transform="translate(622.554267 329.598437)scale(0.1 -0.1)">
       <use xlink:href="#DejaVuSans-48"/>
       <use x="63.623047" xlink:href="#DejaVuSans-46"/>
       <use x="95.410156" xlink:href="#DejaVuSans-51"/>
      </g>
     </g>
    </g>
    <g id="xtick_5">
     <g id="line2d_9">
      <path clip-path="url(#p3562138bd5)" d="M 782.992622 315 
L 782.992622 43.2 
" style="fill:none;stroke:#ffffff;stroke-linecap:square;stroke-width:0.8;"/>
     </g>
     <g id="line2d_10">
      <g>
       <use style="fill:#555555;stroke:#555555;stroke-width:0.8;" x="782.992622" xlink:href="#mae68932c5f" y="315"/>
      </g>
     </g>
     <g id="text_5">
      <!-- 0.4 -->
      <defs>
       <path d="M 37.796875 64.3125 
L 12.890625 25.390625 
L 37.796875 25.390625 
z
M 35.203125 72.90625 
L 47.609375 72.90625 
L 47.609375 25.390625 
L 58.015625 25.390625 
L 58.015625 17.1875 
L 47.609375 17.1875 
L 47.609375 0 
L 37.796875 0 
L 37.796875 17.1875 
L 4.890625 17.1875 
L 4.890625 26.703125 
z
" id="DejaVuSans-52"/>
      </defs>
      <g style="fill:#555555;" transform="translate(775.041059 329.598437)scale(0.1 -0.1)">
       <use xlink:href="#DejaVuSans-48"/>
       <use x="63.623047" xlink:href="#DejaVuSans-46"/>
       <use x="95.410156" xlink:href="#DejaVuSans-52"/>
      </g>
     </g>
    </g>
    <g id="xtick_6">
     <g id="line2d_11">
      <path clip-path="url(#p3562138bd5)" d="M 935.479413 315 
L 935.479413 43.2 
" style="fill:none;stroke:#ffffff;stroke-linecap:square;stroke-width:0.8;"/>
     </g>
     <g id="line2d_12">
      <g>
       <use style="fill:#555555;stroke:#555555;stroke-width:0.8;" x="935.479413" xlink:href="#mae68932c5f" y="315"/>
      </g>
     </g>
     <g id="text_6">
      <!-- 0.5 -->
      <defs>
       <path d="M 10.796875 72.90625 
L 49.515625 72.90625 
L 49.515625 64.59375 
L 19.828125 64.59375 
L 19.828125 46.734375 
Q 21.96875 47.46875 24.109375 47.828125 
Q 26.265625 48.1875 28.421875 48.1875 
Q 40.625 48.1875 47.75 41.5 
Q 54.890625 34.8125 54.890625 23.390625 
Q 54.890625 11.625 47.5625 5.09375 
Q 40.234375 -1.421875 26.90625 -1.421875 
Q 22.3125 -1.421875 17.546875 -0.640625 
Q 12.796875 0.140625 7.71875 1.703125 
L 7.71875 11.625 
Q 12.109375 9.234375 16.796875 8.0625 
Q 21.484375 6.890625 26.703125 6.890625 
Q 35.15625 6.890625 40.078125 11.328125 
Q 45.015625 15.765625 45.015625 23.390625 
Q 45.015625 31 40.078125 35.4375 
Q 35.15625 39.890625 26.703125 39.890625 
Q 22.75 39.890625 18.8125 39.015625 
Q 14.890625 38.140625 10.796875 36.28125 
z
" id="DejaVuSans-53"/>
      </defs>
      <g style="fill:#555555;" transform="translate(927.527851 329.598437)scale(0.1 -0.1)">
       <use xlink:href="#DejaVuSans-48"/>
       <use x="63.623047" xlink:href="#DejaVuSans-46"/>
       <use x="95.410156" xlink:href="#DejaVuSans-53"/>
      </g>
     </g>
    </g>
   </g>
   <g id="matplotlib.axis_2">
    <g id="ytick_1">
     <g id="line2d_13">
      <path clip-path="url(#p3562138bd5)" d="M 135 312.101895 
L 972 312.101895 
" style="fill:none;stroke:#ffffff;stroke-linecap:square;stroke-width:0.8;"/>
     </g>
     <g id="line2d_14">
      <defs>
       <path d="M 0 0 
L -3.5 0 
" id="mbad7fc44ff" style="stroke:#555555;stroke-width:0.8;"/>
      </defs>
      <g>
       <use style="fill:#555555;stroke:#555555;stroke-width:0.8;" x="135" xlink:href="#mbad7fc44ff" y="312.101895"/>
      </g>
     </g>
     <g id="text_7">
      <!-- −0.0002 -->
      <defs>
       <path d="M 10.59375 35.5 
L 73.1875 35.5 
L 73.1875 27.203125 
L 10.59375 27.203125 
z
" id="DejaVuSans-8722"/>
      </defs>
      <g style="fill:#555555;" transform="translate(84.629687 315.901114)scale(0.1 -0.1)">
       <use xlink:href="#DejaVuSans-8722"/>
       <use x="83.789062" xlink:href="#DejaVuSans-48"/>
       <use x="147.412109" xlink:href="#DejaVuSans-46"/>
       <use x="179.199219" xlink:href="#DejaVuSans-48"/>
       <use x="242.822266" xlink:href="#DejaVuSans-48"/>
       <use x="306.445312" xlink:href="#DejaVuSans-48"/>
       <use x="370.068359" xlink:href="#DejaVuSans-50"/>
      </g>
     </g>
    </g>
    <g id="ytick_2">
     <g id="line2d_15">
      <path clip-path="url(#p3562138bd5)" d="M 135 274.070117 
L 972 274.070117 
" style="fill:none;stroke:#ffffff;stroke-linecap:square;stroke-width:0.8;"/>
     </g>
     <g id="line2d_16">
      <g>
       <use style="fill:#555555;stroke:#555555;stroke-width:0.8;" x="135" xlink:href="#mbad7fc44ff" y="274.070117"/>
      </g>
     </g>
     <g id="text_8">
      <!-- 0.0000 -->
      <g style="fill:#555555;" transform="translate(93.009375 277.869336)scale(0.1 -0.1)">
       <use xlink:href="#DejaVuSans-48"/>
       <use x="63.623047" xlink:href="#DejaVuSans-46"/>
       <use x="95.410156" xlink:href="#DejaVuSans-48"/>
       <use x="159.033203" xlink:href="#DejaVuSans-48"/>
       <use x="222.65625" xlink:href="#DejaVuSans-48"/>
       <use x="286.279297" xlink:href="#DejaVuSans-48"/>
      </g>
     </g>
    </g>
    <g id="ytick_3">
     <g id="line2d_17">
      <path clip-path="url(#p3562138bd5)" d="M 135 236.03834 
L 972 236.03834 
" style="fill:none;stroke:#ffffff;stroke-linecap:square;stroke-width:0.8;"/>
     </g>
     <g id="line2d_18">
      <g>
       <use style="fill:#555555;stroke:#555555;stroke-width:0.8;" x="135" xlink:href="#mbad7fc44ff" y="236.03834"/>
      </g>
     </g>
     <g id="text_9">
      <!-- 0.0002 -->
      <g style="fill:#555555;" transform="translate(93.009375 239.837559)scale(0.1 -0.1)">
       <use xlink:href="#DejaVuSans-48"/>
       <use x="63.623047" xlink:href="#DejaVuSans-46"/>
       <use x="95.410156" xlink:href="#DejaVuSans-48"/>
       <use x="159.033203" xlink:href="#DejaVuSans-48"/>
       <use x="222.65625" xlink:href="#DejaVuSans-48"/>
       <use x="286.279297" xlink:href="#DejaVuSans-50"/>
      </g>
     </g>
    </g>
    <g id="ytick_4">
     <g id="line2d_19">
      <path clip-path="url(#p3562138bd5)" d="M 135 198.006562 
L 972 198.006562 
" style="fill:none;stroke:#ffffff;stroke-linecap:square;stroke-width:0.8;"/>
     </g>
     <g id="line2d_20">
      <g>
       <use style="fill:#555555;stroke:#555555;stroke-width:0.8;" x="135" xlink:href="#mbad7fc44ff" y="198.006562"/>
      </g>
     </g>
     <g id="text_10">
      <!-- 0.0004 -->
      <g style="fill:#555555;" transform="translate(93.009375 201.805781)scale(0.1 -0.1)">
       <use xlink:href="#DejaVuSans-48"/>
       <use x="63.623047" xlink:href="#DejaVuSans-46"/>
       <use x="95.410156" xlink:href="#DejaVuSans-48"/>
       <use x="159.033203" xlink:href="#DejaVuSans-48"/>
       <use x="222.65625" xlink:href="#DejaVuSans-48"/>
       <use x="286.279297" xlink:href="#DejaVuSans-52"/>
      </g>
     </g>
    </g>
    <g id="ytick_5">
     <g id="line2d_21">
      <path clip-path="url(#p3562138bd5)" d="M 135 159.974785 
L 972 159.974785 
" style="fill:none;stroke:#ffffff;stroke-linecap:square;stroke-width:0.8;"/>
     </g>
     <g id="line2d_22">
      <g>
       <use style="fill:#555555;stroke:#555555;stroke-width:0.8;" x="135" xlink:href="#mbad7fc44ff" y="159.974785"/>
      </g>
     </g>
     <g id="text_11">
      <!-- 0.0006 -->
      <defs>
       <path d="M 33.015625 40.375 
Q 26.375 40.375 22.484375 35.828125 
Q 18.609375 31.296875 18.609375 23.390625 
Q 18.609375 15.53125 22.484375 10.953125 
Q 26.375 6.390625 33.015625 6.390625 
Q 39.65625 6.390625 43.53125 10.953125 
Q 47.40625 15.53125 47.40625 23.390625 
Q 47.40625 31.296875 43.53125 35.828125 
Q 39.65625 40.375 33.015625 40.375 
z
M 52.59375 71.296875 
L 52.59375 62.3125 
Q 48.875 64.0625 45.09375 64.984375 
Q 41.3125 65.921875 37.59375 65.921875 
Q 27.828125 65.921875 22.671875 59.328125 
Q 17.53125 52.734375 16.796875 39.40625 
Q 19.671875 43.65625 24.015625 45.921875 
Q 28.375 48.1875 33.59375 48.1875 
Q 44.578125 48.1875 50.953125 41.515625 
Q 57.328125 34.859375 57.328125 23.390625 
Q 57.328125 12.15625 50.6875 5.359375 
Q 44.046875 -1.421875 33.015625 -1.421875 
Q 20.359375 -1.421875 13.671875 8.265625 
Q 6.984375 17.96875 6.984375 36.375 
Q 6.984375 53.65625 15.1875 63.9375 
Q 23.390625 74.21875 37.203125 74.21875 
Q 40.921875 74.21875 44.703125 73.484375 
Q 48.484375 72.75 52.59375 71.296875 
z
" id="DejaVuSans-54"/>
      </defs>
      <g style="fill:#555555;" transform="translate(93.009375 163.774004)scale(0.1 -0.1)">
       <use xlink:href="#DejaVuSans-48"/>
       <use x="63.623047" xlink:href="#DejaVuSans-46"/>
       <use x="95.410156" xlink:href="#DejaVuSans-48"/>
       <use x="159.033203" xlink:href="#DejaVuSans-48"/>
       <use x="222.65625" xlink:href="#DejaVuSans-48"/>
       <use x="286.279297" xlink:href="#DejaVuSans-54"/>
      </g>
     </g>
    </g>
    <g id="ytick_6">
     <g id="line2d_23">
      <path clip-path="url(#p3562138bd5)" d="M 135 121.943007 
L 972 121.943007 
" style="fill:none;stroke:#ffffff;stroke-linecap:square;stroke-width:0.8;"/>
     </g>
     <g id="line2d_24">
      <g>
       <use style="fill:#555555;stroke:#555555;stroke-width:0.8;" x="135" xlink:href="#mbad7fc44ff" y="121.943007"/>
      </g>
     </g>
     <g id="text_12">
      <!-- 0.0008 -->
      <defs>
       <path d="M 31.78125 34.625 
Q 24.75 34.625 20.71875 30.859375 
Q 16.703125 27.09375 16.703125 20.515625 
Q 16.703125 13.921875 20.71875 10.15625 
Q 24.75 6.390625 31.78125 6.390625 
Q 38.8125 6.390625 42.859375 10.171875 
Q 46.921875 13.96875 46.921875 20.515625 
Q 46.921875 27.09375 42.890625 30.859375 
Q 38.875 34.625 31.78125 34.625 
z
M 21.921875 38.8125 
Q 15.578125 40.375 12.03125 44.71875 
Q 8.5 49.078125 8.5 55.328125 
Q 8.5 64.0625 14.71875 69.140625 
Q 20.953125 74.21875 31.78125 74.21875 
Q 42.671875 74.21875 48.875 69.140625 
Q 55.078125 64.0625 55.078125 55.328125 
Q 55.078125 49.078125 51.53125 44.71875 
Q 48 40.375 41.703125 38.8125 
Q 48.828125 37.15625 52.796875 32.3125 
Q 56.78125 27.484375 56.78125 20.515625 
Q 56.78125 9.90625 50.3125 4.234375 
Q 43.84375 -1.421875 31.78125 -1.421875 
Q 19.734375 -1.421875 13.25 4.234375 
Q 6.78125 9.90625 6.78125 20.515625 
Q 6.78125 27.484375 10.78125 32.3125 
Q 14.796875 37.15625 21.921875 38.8125 
z
M 18.3125 54.390625 
Q 18.3125 48.734375 21.84375 45.5625 
Q 25.390625 42.390625 31.78125 42.390625 
Q 38.140625 42.390625 41.71875 45.5625 
Q 45.3125 48.734375 45.3125 54.390625 
Q 45.3125 60.0625 41.71875 63.234375 
Q 38.140625 66.40625 31.78125 66.40625 
Q 25.390625 66.40625 21.84375 63.234375 
Q 18.3125 60.0625 18.3125 54.390625 
z
" id="DejaVuSans-56"/>
      </defs>
      <g style="fill:#555555;" transform="translate(93.009375 125.742226)scale(0.1 -0.1)">
       <use xlink:href="#DejaVuSans-48"/>
       <use x="63.623047" xlink:href="#DejaVuSans-46"/>
       <use x="95.410156" xlink:href="#DejaVuSans-48"/>
       <use x="159.033203" xlink:href="#DejaVuSans-48"/>
       <use x="222.65625" xlink:href="#DejaVuSans-48"/>
       <use x="286.279297" xlink:href="#DejaVuSans-56"/>
      </g>
     </g>
    </g>
    <g id="ytick_7">
     <g id="line2d_25">
      <path clip-path="url(#p3562138bd5)" d="M 135 83.91123 
L 972 83.91123 
" style="fill:none;stroke:#ffffff;stroke-linecap:square;stroke-width:0.8;"/>
     </g>
     <g id="line2d_26">
      <g>
       <use style="fill:#555555;stroke:#555555;stroke-width:0.8;" x="135" xlink:href="#mbad7fc44ff" y="83.91123"/>
      </g>
     </g>
     <g id="text_13">
      <!-- 0.0010 -->
      <g style="fill:#555555;" transform="translate(93.009375 87.710448)scale(0.1 -0.1)">
       <use xlink:href="#DejaVuSans-48"/>
       <use x="63.623047" xlink:href="#DejaVuSans-46"/>
       <use x="95.410156" xlink:href="#DejaVuSans-48"/>
       <use x="159.033203" xlink:href="#DejaVuSans-48"/>
       <use x="222.65625" xlink:href="#DejaVuSans-49"/>
       <use x="286.279297" xlink:href="#DejaVuSans-48"/>
      </g>
     </g>
    </g>
    <g id="ytick_8">
     <g id="line2d_27">
      <path clip-path="url(#p3562138bd5)" d="M 135 45.879452 
L 972 45.879452 
" style="fill:none;stroke:#ffffff;stroke-linecap:square;stroke-width:0.8;"/>
     </g>
     <g id="line2d_28">
      <g>
       <use style="fill:#555555;stroke:#555555;stroke-width:0.8;" x="135" xlink:href="#mbad7fc44ff" y="45.879452"/>
      </g>
     </g>
     <g id="text_14">
      <!-- 0.0012 -->
      <g style="fill:#555555;" transform="translate(93.009375 49.678671)scale(0.1 -0.1)">
       <use xlink:href="#DejaVuSans-48"/>
       <use x="63.623047" xlink:href="#DejaVuSans-46"/>
       <use x="95.410156" xlink:href="#DejaVuSans-48"/>
       <use x="159.033203" xlink:href="#DejaVuSans-48"/>
       <use x="222.65625" xlink:href="#DejaVuSans-49"/>
       <use x="286.279297" xlink:href="#DejaVuSans-50"/>
      </g>
     </g>
    </g>
   </g>
   <g id="line2d_29">
    <path clip-path="url(#p3562138bd5)" d="M 173.045455 217.609872 
L 212.69202 215.448072 
L 250.813718 213.588422 
L 288.935416 211.955111 
L 325.532246 210.609436 
L 362.129076 209.489291 
L 397.201038 208.633353 
L 432.273001 207.994864 
L 467.344963 207.577156 
L 502.416925 207.382409 
L 537.488887 207.41164 
L 572.560849 207.664696 
L 607.632811 208.140256 
L 642.704773 208.835839 
L 677.776735 209.747814 
L 714.373565 210.924988 
L 750.970395 212.325901 
L 789.092093 214.014505 
L 827.213791 215.926823 
L 866.860357 218.140261 
L 908.031791 220.665594 
L 933.954545 222.366157 
L 933.954545 222.366157 
" style="fill:none;stroke:#e24a33;stroke-linecap:square;stroke-width:1.5;"/>
   </g>
   <g id="line2d_30">
    <path clip-path="url(#p3562138bd5)" d="M 173.045455 176.99499 
L 177.620058 150.874216 
L 180.669794 134.29039 
L 183.71953 118.844671 
L 186.769266 104.870161 
L 189.819002 92.622606 
L 191.34387 87.204013 
L 192.868737 82.276076 
L 194.393605 77.848105 
L 195.918473 73.924847 
L 197.443341 70.506845 
L 198.968209 67.590834 
L 200.493077 65.170208 
L 202.017945 63.235504 
L 203.542813 61.774919 
L 205.067681 60.774833 
L 206.592549 60.220327 
L 208.117417 60.095688 
L 209.642285 60.384875 
L 211.167152 61.071963 
L 212.69202 62.141515 
L 214.216888 63.578918 
L 215.741756 65.37064 
L 217.266624 67.504422 
L 218.791492 69.9694 
L 220.31636 72.756155 
L 221.841228 75.856682 
L 223.366096 79.264299 
L 224.890964 82.973489 
L 227.9407 91.278968 
L 230.990435 100.742707 
L 234.040171 111.334373 
L 237.089907 123.01193 
L 240.139643 135.709868 
L 243.189379 149.328823 
L 247.763983 171.163284 
L 253.863454 201.800747 
L 259.962926 232.158808 
L 263.012662 246.432514 
L 266.062398 259.660874 
L 269.112133 271.530583 
L 270.637001 276.866673 
L 272.161869 281.761334 
L 273.686737 286.186887 
L 275.211605 290.119238 
L 276.736473 293.538115 
L 278.261341 296.427245 
L 279.786209 298.774467 
L 281.311077 300.571775 
L 282.835945 301.815288 
L 284.360813 302.505166 
L 285.88568 302.645455 
L 287.410548 302.243877 
L 288.935416 301.311579 
L 290.460284 299.86282 
L 291.985152 297.914643 
L 293.51002 295.486503 
L 295.034888 292.59989 
L 296.559756 289.277936 
L 298.084624 285.545028 
L 299.609492 281.426425 
L 302.659228 272.135406 
L 305.708963 261.611437 
L 308.758699 250.05527 
L 311.808435 237.655662 
L 316.383039 217.850563 
L 322.48251 189.994823 
L 334.681454 133.574087 
L 339.256058 113.790722 
L 342.305793 101.529891 
L 345.355529 90.265786 
L 348.405265 80.224915 
L 349.930133 75.73372 
L 351.455001 71.631821 
L 352.979869 67.945242 
L 354.504737 64.698516 
L 356.029605 61.914327 
L 357.554473 59.613166 
L 359.07934 57.813007 
L 360.604208 56.52901 
L 362.129076 55.773261 
L 363.653944 55.554545 
L 365.178812 55.878172 
L 366.70368 56.745849 
L 368.228548 58.155604 
L 369.753416 60.101767 
L 371.278284 62.575005 
L 372.803152 65.562411 
L 374.32802 69.047644 
L 375.852888 73.011122 
L 377.377756 77.430256 
L 378.902623 82.279727 
L 381.952359 93.156633 
L 385.002095 105.397063 
L 388.051831 118.734528 
L 392.626435 140.193001 
L 407.875114 213.885342 
L 410.92485 227.420976 
L 413.974586 240.169064 
L 417.024321 251.999254 
L 420.074057 262.79024 
L 423.123793 272.424979 
L 426.173529 280.78714 
L 427.698397 284.454378 
L 429.223265 287.759387 
L 430.748133 290.687424 
L 432.273001 293.223874 
L 433.797868 295.354392 
L 435.322736 297.065074 
L 436.847604 298.342665 
L 438.372472 299.174776 
L 439.89734 299.550134 
L 441.422208 299.458831 
L 442.947076 298.892589 
L 444.471944 297.845017 
L 445.996812 296.311857 
L 447.52168 294.291226 
L 449.046548 291.783825 
L 450.571416 288.793124 
L 452.096283 285.325516 
L 453.621151 281.390429 
L 455.146019 277.000395 
L 456.670887 272.171082 
L 458.195755 266.921264 
L 461.245491 255.250305 
L 464.295227 242.196094 
L 467.344963 228.007674 
L 471.919566 205.219393 
L 484.11851 142.93213 
L 487.168246 128.606888 
L 490.217981 115.280299 
L 493.267717 103.142429 
L 496.317453 92.345495 
L 497.842321 87.487471 
L 499.367189 83.005569 
L 500.892057 78.90928 
L 502.416925 75.206399 
L 503.941793 71.903215 
L 505.466661 69.004701 
L 506.991529 66.514709 
L 508.516396 64.436149 
L 510.041264 62.771163 
L 511.566132 61.521268 
L 513.091 60.687488 
L 514.615868 60.27045 
L 516.140736 60.27045 
L 517.665604 60.687488 
L 519.190472 61.521268 
L 520.71534 62.771163 
L 522.240208 64.436149 
L 523.765076 66.514709 
L 525.289944 69.004701 
L 526.814811 71.903215 
L 528.339679 75.206399 
L 529.864547 78.90928 
L 531.389415 83.005569 
L 532.914283 87.487471 
L 535.964019 97.568279 
L 539.013755 109.052381 
L 542.063491 121.805992 
L 545.113226 135.65803 
L 548.162962 150.399658 
L 552.737566 173.637061 
L 561.886774 220.574987 
L 564.936509 235.22673 
L 567.986245 248.881401 
L 571.035981 261.272759 
L 574.085717 272.171082 
L 575.610585 277.000395 
L 577.135453 281.390429 
L 578.660321 285.325516 
L 580.185189 288.793124 
L 581.710056 291.783825 
L 583.234924 294.291226 
L 584.759792 296.311857 
L 586.28466 297.845017 
L 587.809528 298.892589 
L 589.334396 299.458831 
L 590.859264 299.550134 
L 592.384132 299.174776 
L 593.909 298.342665 
L 595.433868 297.065074 
L 596.958736 295.354392 
L 598.483604 293.223874 
L 600.008471 290.687424 
L 601.533339 287.759387 
L 603.058207 284.454378 
L 604.583075 280.78714 
L 606.107943 276.772436 
L 609.157679 267.759397 
L 612.207415 257.532013 
L 615.257151 246.206629 
L 618.306887 233.901883 
L 621.356622 220.742958 
L 625.931226 199.706818 
L 632.030698 170.099425 
L 639.655037 132.892593 
L 642.704773 118.734528 
L 645.754509 105.397063 
L 648.804245 93.156633 
L 651.853981 82.279727 
L 653.378849 77.430256 
L 654.903717 73.011122 
L 656.428584 69.047644 
L 657.953452 65.562411 
L 659.47832 62.575005 
L 661.003188 60.101767 
L 662.528056 58.155604 
L 664.052924 56.745849 
L 665.577792 55.878172 
L 667.10266 55.554545 
L 668.627528 55.773261 
L 670.152396 56.52901 
L 671.677264 57.813007 
L 673.202132 59.613166 
L 674.726999 61.914327 
L 676.251867 64.698516 
L 677.776735 67.945242 
L 679.301603 71.631821 
L 680.826471 75.73372 
L 682.351339 80.224915 
L 685.401075 90.265786 
L 688.450811 101.529891 
L 691.500547 113.790722 
L 696.07515 133.574087 
L 702.174622 161.513793 
L 712.848697 211.005821 
L 717.423301 231.194453 
L 720.473037 243.949673 
L 723.522773 255.950248 
L 726.572509 267.01477 
L 729.622244 276.9479 
L 731.147112 281.426425 
L 732.67198 285.545028 
L 734.196848 289.277936 
L 735.721716 292.59989 
L 737.246584 295.486503 
L 738.771452 297.914643 
L 740.29632 299.86282 
L 741.821188 301.311579 
L 743.346056 302.243877 
L 744.870924 302.645455 
L 746.395792 302.505166 
L 747.92066 301.815288 
L 749.445527 300.571775 
L 750.970395 298.774467 
L 752.495263 296.427245 
L 754.020131 293.538115 
L 755.544999 290.119238 
L 757.069867 286.186887 
L 758.594735 281.761334 
L 760.119603 276.866673 
L 761.644471 271.530583 
L 764.694207 259.660874 
L 767.743942 246.432514 
L 770.793678 232.158808 
L 775.368282 209.513038 
L 784.51749 163.727817 
L 787.567225 149.328823 
L 790.616961 135.709868 
L 793.666697 123.01193 
L 796.716433 111.334373 
L 799.766169 100.742707 
L 802.815905 91.278968 
L 805.86564 82.973489 
L 807.390508 79.264299 
L 808.915376 75.856682 
L 810.440244 72.756155 
L 811.965112 69.9694 
L 813.48998 67.504422 
L 815.014848 65.37064 
L 816.539716 63.578918 
L 818.064584 62.141515 
L 819.589452 61.071963 
L 821.11432 60.384875 
L 822.639187 60.095688 
L 824.164055 60.220327 
L 825.688923 60.774833 
L 827.213791 61.774919 
L 828.738659 63.235504 
L 830.263527 65.170208 
L 831.788395 67.590834 
L 833.313263 70.506845 
L 834.838131 73.924847 
L 836.362999 77.848105 
L 837.887867 82.276076 
L 839.412735 87.204013 
L 840.937602 92.622606 
L 842.46247 98.517713 
L 845.512206 111.655636 
L 848.561942 126.402729 
L 851.611678 142.463631 
L 856.186282 168.196322 
L 863.810621 211.713071 
L 866.860357 227.94713 
L 869.910093 242.83362 
L 872.959829 255.994376 
L 874.484697 261.83164 
L 876.009565 267.134315 
L 877.534433 271.881288 
L 879.0593 276.058414 
L 880.584168 279.658681 
L 882.109036 282.682258 
L 883.633904 285.136413 
L 885.158772 287.035318 
L 886.68364 288.399737 
L 888.208508 289.256604 
L 889.733376 289.6385 
L 891.258244 289.583033 
L 892.783112 289.132146 
L 894.30798 288.331352 
L 895.832848 287.228921 
L 897.357715 285.875028 
L 900.407451 282.617866 
L 909.556659 271.962376 
L 911.081527 270.499578 
L 912.606395 269.211571 
L 914.131263 268.119043 
L 915.65613 267.237168 
L 917.180998 266.575559 
L 918.705866 266.138342 
L 920.230734 265.924319 
L 921.755602 265.927249 
L 923.28047 266.136207 
L 924.805338 266.536033 
L 926.330206 267.107853 
L 927.855074 267.829651 
L 930.90481 269.623209 
L 933.954545 271.702174 
L 933.954545 271.702174 
" style="fill:none;stroke:#348abd;stroke-linecap:square;stroke-width:1.5;"/>
   </g>
   <g id="line2d_31">
    <path clip-path="url(#p3562138bd5)" d="M 173.045455 161.418968 
L 174.570322 141.259568 
L 176.09519 122.983621 
L 177.620058 107.213535 
L 179.144926 94.379931 
L 180.669794 84.697101 
L 182.194662 78.15702 
L 183.71953 74.54207 
L 185.244398 73.454966 
L 186.769266 74.362834 
L 188.294134 76.651124 
L 192.868737 85.647852 
L 194.393605 87.6768 
L 195.918473 88.704837 
L 197.443341 88.660589 
L 198.968209 87.62971 
L 200.493077 85.832203 
L 205.067681 79.245127 
L 206.592549 77.858928 
L 208.117417 77.353708 
L 209.642285 77.858465 
L 211.167152 79.366216 
L 212.69202 81.731713 
L 215.741756 87.861452 
L 217.266624 90.839626 
L 218.791492 93.19256 
L 220.31636 94.537844 
L 221.841228 94.586973 
L 223.366096 93.186851 
L 224.890964 90.349216 
L 226.415832 86.264586 
L 229.465567 75.971826 
L 230.990435 70.920534 
L 232.515303 66.848112 
L 234.040171 64.464917 
L 235.565039 64.42586 
L 237.089907 67.270148 
L 238.614775 73.369008 
L 240.139643 82.886377 
L 241.664511 95.756405 
L 243.189379 111.680111 
L 244.714247 130.141796 
L 247.763983 171.758051 
L 250.813718 213.828164 
L 252.338586 232.85095 
L 253.863454 249.548268 
L 255.388322 263.391809 
L 256.91319 274.065525 
L 258.438058 281.481568 
L 259.962926 285.776566 
L 261.487794 287.288922 
L 263.012662 286.519567 
L 264.53753 284.080118 
L 266.062398 280.633474 
L 269.112133 273.262813 
L 270.637001 270.394183 
L 272.161869 268.546145 
L 273.686737 267.869481 
L 275.211605 268.345626 
L 276.736473 269.80326 
L 278.261341 271.949973 
L 281.311077 276.800811 
L 282.835945 278.730681 
L 284.360813 279.899367 
L 285.88568 280.10936 
L 287.410548 279.296242 
L 288.935416 277.537989 
L 290.460284 275.047533 
L 293.51002 269.242166 
L 295.034888 266.752339 
L 296.559756 265.08154 
L 298.084624 264.555404 
L 299.609492 265.377868 
L 301.13436 267.596427 
L 302.659228 271.082195 
L 304.184095 275.527321 
L 307.233831 285.280255 
L 308.758699 289.301495 
L 310.283567 291.814246 
L 311.808435 292.146268 
L 313.333303 289.725546 
L 314.858171 284.136157 
L 316.383039 275.16223 
L 317.907907 262.815678 
L 319.432775 247.344841 
L 320.957643 229.222913 
L 324.007378 187.83983 
L 327.057114 145.382181 
L 328.581982 125.979884 
L 330.10685 108.828705 
L 331.631718 94.502982 
L 333.156586 83.366484 
L 334.681454 75.551785 
L 336.206322 70.959713 
L 337.73119 69.278576 
L 339.256058 70.02105 
L 340.780925 72.575002 
L 342.305793 76.263257 
L 345.355529 84.383874 
L 346.880397 87.68413 
L 348.405265 89.945243 
L 349.930133 90.976552 
L 351.455001 90.763282 
L 352.979869 89.453049 
L 354.504737 87.326293 
L 357.554473 82.148088 
L 359.07934 79.907691 
L 360.604208 78.370574 
L 362.129076 77.771288 
L 363.653944 78.212567 
L 365.178812 79.65229 
L 366.70368 81.907477 
L 371.278284 90.155419 
L 372.803152 92.027905 
L 374.32802 92.83685 
L 375.852888 92.349285 
L 377.377756 90.484182 
L 378.902623 87.335727 
L 380.427491 83.179291 
L 383.477227 73.757124 
L 385.002095 69.748949 
L 386.526963 67.145103 
L 388.051831 66.628539 
L 389.576699 68.79085 
L 391.101567 74.074343 
L 392.626435 82.725401 
L 394.151303 94.763723 
L 395.676171 109.970606 
L 397.201038 127.89768 
L 400.250774 169.160453 
L 403.30051 211.870015 
L 404.825378 231.509052 
L 406.350246 248.940854 
L 407.875114 263.563198 
L 409.399982 274.983351 
L 410.92485 283.041508 
L 412.449718 287.813941 
L 413.974586 289.595916 
L 415.499453 288.866272 
L 417.024321 286.237292 
L 418.549189 282.394778 
L 421.598925 273.79832 
L 423.123793 270.224033 
L 424.648661 267.700028 
L 426.173529 266.442167 
L 427.698397 266.486535 
L 429.223265 267.700947 
L 430.748133 269.813124 
L 435.322736 277.63924 
L 436.847604 279.415395 
L 438.372472 280.269266 
L 439.89734 280.073394 
L 441.422208 278.846416 
L 442.947076 276.751293 
L 447.52168 268.554748 
L 449.046548 266.554227 
L 450.571416 265.561086 
L 452.096283 265.826712 
L 453.621151 267.453929 
L 455.146019 270.371585 
L 456.670887 274.326365 
L 459.720623 283.503725 
L 461.245491 287.490873 
L 462.770359 290.145111 
L 464.295227 290.777808 
L 465.820095 288.785476 
L 467.344963 283.708907 
L 468.869831 275.281483 
L 470.394698 263.461914 
L 471.919566 248.448026 
L 473.444434 230.670012 
L 476.49417 189.524092 
L 479.543906 146.667532 
L 481.068774 126.871367 
L 482.593642 109.245771 
L 484.11851 94.411829 
L 485.643378 82.782645 
L 487.168246 74.53795 
L 488.693113 69.619058 
L 490.217981 67.744307 
L 491.742849 68.443224 
L 493.267717 71.105909 
L 494.792585 75.042793 
L 497.842321 83.967182 
L 499.367189 87.74307 
L 500.892057 90.468522 
L 502.416925 91.908497 
L 503.941793 92.009717 
L 505.466661 90.890773 
L 506.991529 88.815216 
L 511.566132 80.744272 
L 513.091 78.795485 
L 514.615868 77.748102 
L 516.140736 77.748102 
L 517.665604 78.795485 
L 519.190472 80.744272 
L 520.71534 83.3197 
L 523.765076 88.815216 
L 525.289944 90.890773 
L 526.814811 92.009717 
L 528.339679 91.908497 
L 529.864547 90.468522 
L 531.389415 87.74307 
L 532.914283 83.967182 
L 535.964019 75.042793 
L 537.488887 71.105909 
L 539.013755 68.443224 
L 540.538623 67.744307 
L 542.063491 69.619058 
L 543.588359 74.53795 
L 545.113226 82.782645 
L 546.638094 94.411829 
L 548.162962 109.245771 
L 549.68783 126.871367 
L 552.737566 167.848899 
L 555.787302 210.763421 
L 557.31217 230.670012 
L 558.837038 248.448026 
L 560.361906 263.461914 
L 561.886774 275.281483 
L 563.411641 283.708907 
L 564.936509 288.785476 
L 566.461377 290.777808 
L 567.986245 290.145111 
L 569.511113 287.490873 
L 571.035981 283.503725 
L 574.085717 274.326365 
L 575.610585 270.371585 
L 577.135453 267.453929 
L 578.660321 265.826712 
L 580.185189 265.561086 
L 581.710056 266.554227 
L 583.234924 268.554748 
L 584.759792 271.202238 
L 587.809528 276.751293 
L 589.334396 278.846416 
L 590.859264 280.073394 
L 592.384132 280.269266 
L 593.909 279.415395 
L 595.433868 277.63924 
L 596.958736 275.198918 
L 600.008471 269.813124 
L 601.533339 267.700947 
L 603.058207 266.486535 
L 604.583075 266.442167 
L 606.107943 267.700028 
L 607.632811 270.224033 
L 609.157679 273.79832 
L 613.732283 286.237292 
L 615.257151 288.866272 
L 616.782019 289.595916 
L 618.306887 287.813941 
L 619.831754 283.041508 
L 621.356622 274.983351 
L 622.88149 263.563198 
L 624.406358 248.940854 
L 625.931226 231.509052 
L 627.456094 211.870015 
L 633.555566 127.89768 
L 635.080434 109.970606 
L 636.605302 94.763723 
L 638.130169 82.725401 
L 639.655037 74.074343 
L 641.179905 68.79085 
L 642.704773 66.628539 
L 644.229641 67.145103 
L 645.754509 69.748949 
L 647.279377 73.757124 
L 650.329113 83.179291 
L 651.853981 87.335727 
L 653.378849 90.484182 
L 654.903717 92.349285 
L 656.428584 92.83685 
L 657.953452 92.027905 
L 659.47832 90.155419 
L 661.003188 87.566593 
L 664.052924 81.907477 
L 665.577792 79.65229 
L 667.10266 78.212567 
L 668.627528 77.771288 
L 670.152396 78.370574 
L 671.677264 79.907691 
L 673.202132 82.148088 
L 676.251867 87.326293 
L 677.776735 89.453049 
L 679.301603 90.763282 
L 680.826471 90.976552 
L 682.351339 89.945243 
L 683.876207 87.68413 
L 685.401075 84.383874 
L 689.975679 72.575002 
L 691.500547 70.02105 
L 693.025414 69.278576 
L 694.550282 70.959713 
L 696.07515 75.551785 
L 697.600018 83.366484 
L 699.124886 94.502982 
L 700.649754 108.828705 
L 702.174622 125.979884 
L 703.69949 145.382181 
L 709.798962 229.222913 
L 711.323829 247.344841 
L 712.848697 262.815678 
L 714.373565 275.16223 
L 715.898433 284.136157 
L 717.423301 289.725546 
L 718.948169 292.146268 
L 720.473037 291.814246 
L 721.997905 289.301495 
L 723.522773 285.280255 
L 728.097377 271.082195 
L 729.622244 267.596427 
L 731.147112 265.377868 
L 732.67198 264.555404 
L 734.196848 265.08154 
L 735.721716 266.752339 
L 737.246584 269.242166 
L 740.29632 275.047533 
L 741.821188 277.537989 
L 743.346056 279.296242 
L 744.870924 280.10936 
L 746.395792 279.899367 
L 747.92066 278.730681 
L 749.445527 276.800811 
L 754.020131 269.80326 
L 755.544999 268.345626 
L 757.069867 267.869481 
L 758.594735 268.546145 
L 760.119603 270.394183 
L 761.644471 273.262813 
L 766.219075 284.080118 
L 767.743942 286.519567 
L 769.26881 287.288922 
L 770.793678 285.776566 
L 772.318546 281.481568 
L 773.843414 274.065525 
L 775.368282 263.391809 
L 776.89315 249.548268 
L 778.418018 232.85095 
L 779.942886 213.828164 
L 787.567225 111.680111 
L 789.092093 95.756405 
L 790.616961 82.886377 
L 792.141829 73.369008 
L 793.666697 67.270148 
L 795.191565 64.42586 
L 796.716433 64.464917 
L 798.241301 66.848112 
L 799.766169 70.920534 
L 804.340772 86.264586 
L 805.86564 90.349216 
L 807.390508 93.186851 
L 808.915376 94.586973 
L 810.440244 94.537844 
L 811.965112 93.19256 
L 813.48998 90.839626 
L 818.064584 81.731713 
L 819.589452 79.366216 
L 821.11432 77.858465 
L 822.639187 77.353708 
L 824.164055 77.858928 
L 825.688923 79.245127 
L 827.213791 81.265374 
L 830.263527 85.832203 
L 831.788395 87.62971 
L 833.313263 88.660589 
L 834.838131 88.704837 
L 836.362999 87.6768 
L 837.887867 85.647852 
L 839.412735 82.853284 
L 842.46247 76.651124 
L 843.987338 74.362834 
L 845.512206 73.454966 
L 847.037074 74.54207 
L 848.561942 78.15702 
L 850.08681 84.697101 
L 851.611678 94.379931 
L 853.136546 107.213535 
L 854.661414 122.983621 
L 856.186282 141.259568 
L 859.236017 182.688829 
L 862.285753 225.050838 
L 863.810621 244.372824 
L 865.335489 261.395646 
L 866.860357 275.503046 
L 868.385225 286.276606 
L 869.910093 293.52318 
L 871.434961 297.283893 
L 872.959829 297.824148 
L 874.484697 295.605779 
L 876.009565 291.244027 
L 877.534433 285.453299 
L 880.584168 272.574016 
L 882.109036 266.865439 
L 883.633904 262.382569 
L 885.158772 259.483848 
L 886.68364 258.345084 
L 888.208508 258.956867 
L 889.733376 261.138381 
L 891.258244 264.565771 
L 892.783112 268.811921 
L 895.832848 277.821326 
L 897.357715 281.647375 
L 898.882583 284.50734 
L 900.407451 286.151851 
L 901.932319 286.465718 
L 903.457187 285.473258 
L 904.982055 283.329813 
L 906.506923 280.300825 
L 911.081527 269.515472 
L 912.606395 266.608195 
L 914.131263 264.563896 
L 915.65613 263.564864 
L 917.180998 263.681349 
L 918.705866 264.868049 
L 920.230734 266.972248 
L 921.755602 269.752426 
L 926.330206 279.002158 
L 927.855074 281.328432 
L 929.379942 282.85285 
L 930.90481 283.438841 
L 932.429678 283.048633 
L 933.954545 281.744658 
L 933.954545 281.744658 
" style="fill:none;stroke:#988ed5;stroke-linecap:square;stroke-width:1.5;"/>
   </g>
   <g id="line2d_32">
    <path clip-path="url(#p3562138bd5)" d="M 173.045455 165.392482 
L 174.570322 136.615388 
L 176.09519 110.930722 
L 177.620058 90.176561 
L 179.144926 75.53507 
L 180.669794 67.381086 
L 182.194662 65.259622 
L 183.71953 67.995187 
L 185.244398 73.912686 
L 188.294134 87.87124 
L 189.819002 92.74269 
L 191.34387 94.929244 
L 192.868737 94.27455 
L 194.393605 91.238271 
L 198.968209 77.967709 
L 200.493077 75.680991 
L 202.017945 75.51415 
L 203.542813 77.394785 
L 205.067681 80.786252 
L 206.592549 84.824925 
L 208.117417 88.524005 
L 209.642285 90.999322 
L 211.167152 91.668651 
L 212.69202 90.381986 
L 214.216888 87.454936 
L 217.266624 79.755409 
L 218.791492 76.890478 
L 220.31636 75.758666 
L 221.841228 76.722673 
L 223.366096 79.648511 
L 224.890964 83.909499 
L 226.415832 88.502106 
L 227.9407 92.254475 
L 229.465567 94.088409 
L 230.990435 93.282977 
L 232.515303 89.685237 
L 234.040171 83.821867 
L 235.565039 76.883132 
L 237.089907 70.574522 
L 238.614775 66.85696 
L 240.139643 67.61875 
L 241.664511 74.337056 
L 243.189379 87.790709 
L 244.714247 107.878522 
L 246.239115 133.579352 
L 252.338586 249.701197 
L 253.863454 270.236261 
L 255.388322 284.129404 
L 256.91319 291.187727 
L 258.438058 292.118471 
L 259.962926 288.362254 
L 261.487794 281.813713 
L 263.012662 274.482082 
L 264.53753 268.153575 
L 266.062398 264.11523 
L 267.587265 262.98665 
L 269.112133 264.684572 
L 270.637001 268.519601 
L 273.686737 278.095886 
L 275.211605 281.515273 
L 276.736473 282.927744 
L 278.261341 282.103193 
L 279.786209 279.335919 
L 282.835945 271.149854 
L 284.360813 267.731587 
L 285.88568 265.912894 
L 287.410548 266.122275 
L 288.935416 268.310426 
L 290.460284 271.961813 
L 291.985152 276.209639 
L 293.51002 280.029858 
L 295.034888 282.473155 
L 296.559756 282.885492 
L 298.084624 281.069512 
L 299.609492 277.350513 
L 302.659228 267.730057 
L 304.184095 264.162608 
L 305.708963 262.857191 
L 307.233831 264.411248 
L 308.758699 268.807778 
L 310.283567 275.342133 
L 311.808435 282.677557 
L 313.333303 289.025399 
L 314.858171 292.422191 
L 316.383039 291.056886 
L 317.907907 283.590919 
L 319.432775 269.413697 
L 320.957643 248.786549 
L 322.48251 222.847333 
L 327.057114 133.977442 
L 328.581982 108.634519 
L 330.10685 88.730027 
L 331.631718 75.239326 
L 333.156586 68.269274 
L 334.681454 67.097541 
L 336.206322 70.341705 
L 337.73119 76.224658 
L 339.256058 82.887142 
L 340.780925 88.691649 
L 342.305793 92.465617 
L 343.830661 93.644745 
L 345.355529 92.296941 
L 346.880397 89.029921 
L 349.930133 80.709124 
L 351.455001 77.69774 
L 352.979869 76.414289 
L 354.504737 77.063565 
L 356.029605 79.393872 
L 359.07934 86.356639 
L 360.604208 89.262813 
L 362.129076 90.794836 
L 363.653944 90.585456 
L 365.178812 88.680812 
L 366.70368 85.530281 
L 368.228548 81.88689 
L 369.753416 78.639095 
L 371.278284 76.609173 
L 372.803152 76.360814 
L 374.32802 78.057426 
L 375.852888 81.40313 
L 378.902623 89.894261 
L 380.427491 92.959166 
L 381.952359 93.958275 
L 383.477227 92.360489 
L 385.002095 88.190104 
L 386.526963 82.098935 
L 388.051831 75.323081 
L 389.576699 69.525544 
L 391.101567 66.547315 
L 392.626435 68.107368 
L 394.151303 75.502816 
L 395.676171 89.362208 
L 397.201038 109.497083 
L 398.725906 134.880689 
L 404.825378 248.367908 
L 406.350246 268.66481 
L 407.875114 282.675718 
L 409.399982 290.176886 
L 410.92485 291.772193 
L 412.449718 288.750443 
L 413.974586 282.840618 
L 415.499453 275.909736 
L 417.024321 269.656822 
L 418.549189 265.355642 
L 420.074057 263.688566 
L 421.598925 264.696206 
L 423.123793 267.845713 
L 426.173529 276.643134 
L 427.698397 280.139418 
L 429.223265 281.936937 
L 430.748133 281.716077 
L 432.273001 279.633509 
L 433.797868 276.264826 
L 435.322736 272.460162 
L 436.847604 269.145382 
L 438.372472 267.11181 
L 439.89734 266.839097 
L 441.422208 268.388541 
L 442.947076 271.389318 
L 445.996812 278.673386 
L 447.52168 281.155916 
L 449.046548 281.902872 
L 450.571416 280.639361 
L 452.096283 277.56494 
L 455.146019 268.941615 
L 456.670887 265.50487 
L 458.195755 264.027846 
L 459.720623 265.148785 
L 461.245491 268.949821 
L 462.770359 274.861111 
L 464.295227 281.685901 
L 465.820095 287.749307 
L 467.344963 291.150093 
L 468.869831 290.07432 
L 470.394698 283.116513 
L 471.919566 269.550596 
L 473.444434 249.500053 
L 474.969302 223.973587 
L 481.068774 108.838419 
L 482.593642 88.333102 
L 484.11851 74.334156 
L 485.643378 67.061953 
L 487.168246 65.860795 
L 488.693113 69.353341 
L 490.217981 75.705221 
L 491.742849 82.950757 
L 493.267717 89.320999 
L 494.792585 93.516516 
L 496.317453 94.879141 
L 497.842321 93.436797 
L 499.367189 89.819783 
L 502.416925 80.390791 
L 503.941793 76.87101 
L 505.466661 75.26706 
L 506.991529 75.854829 
L 508.516396 78.395287 
L 510.041264 82.210333 
L 511.566132 86.350103 
L 513.091 89.814054 
L 514.615868 91.777866 
L 516.140736 91.777866 
L 517.665604 89.814054 
L 519.190472 86.350103 
L 520.71534 82.210333 
L 522.240208 78.395287 
L 523.765076 75.854829 
L 525.289944 75.26706 
L 526.814811 76.87101 
L 528.339679 80.390791 
L 531.389415 89.819783 
L 532.914283 93.436797 
L 534.439151 94.879141 
L 535.964019 93.516516 
L 537.488887 89.320999 
L 539.013755 82.950757 
L 540.538623 75.705221 
L 542.063491 69.353341 
L 543.588359 65.860795 
L 545.113226 67.061953 
L 546.638094 74.334156 
L 548.162962 88.333102 
L 549.68783 108.838419 
L 551.212698 134.739679 
L 555.787302 223.973587 
L 557.31217 249.500053 
L 558.837038 269.550596 
L 560.361906 283.116513 
L 561.886774 290.07432 
L 563.411641 291.150093 
L 564.936509 287.749307 
L 566.461377 281.685901 
L 567.986245 274.861111 
L 569.511113 268.949821 
L 571.035981 265.148785 
L 572.560849 264.027846 
L 574.085717 265.50487 
L 575.610585 268.941615 
L 578.660321 277.56494 
L 580.185189 280.639361 
L 581.710056 281.902872 
L 583.234924 281.155916 
L 584.759792 278.673386 
L 587.809528 271.389318 
L 589.334396 268.388541 
L 590.859264 266.839097 
L 592.384132 267.11181 
L 593.909 269.145382 
L 595.433868 272.460162 
L 596.958736 276.264826 
L 598.483604 279.633509 
L 600.008471 281.716077 
L 601.533339 281.936937 
L 603.058207 280.139418 
L 604.583075 276.643134 
L 607.632811 267.845713 
L 609.157679 264.696206 
L 610.682547 263.688566 
L 612.207415 265.355642 
L 613.732283 269.656822 
L 615.257151 275.909736 
L 616.782019 282.840618 
L 618.306887 288.750443 
L 619.831754 291.772193 
L 621.356622 290.176886 
L 622.88149 282.675718 
L 624.406358 268.66481 
L 625.931226 248.367908 
L 627.456094 222.849467 
L 632.030698 134.880689 
L 633.555566 109.497083 
L 635.080434 89.362208 
L 636.605302 75.502816 
L 638.130169 68.107368 
L 639.655037 66.547315 
L 641.179905 69.525544 
L 642.704773 75.323081 
L 644.229641 82.098935 
L 645.754509 88.190104 
L 647.279377 92.360489 
L 648.804245 93.958275 
L 650.329113 92.959166 
L 651.853981 89.894261 
L 654.903717 81.40313 
L 656.428584 78.057426 
L 657.953452 76.360814 
L 659.47832 76.609173 
L 661.003188 78.639095 
L 662.528056 81.88689 
L 664.052924 85.530281 
L 665.577792 88.680812 
L 667.10266 90.585456 
L 668.627528 90.794836 
L 670.152396 89.262813 
L 671.677264 86.356639 
L 674.726999 79.393872 
L 676.251867 77.063565 
L 677.776735 76.414289 
L 679.301603 77.69774 
L 680.826471 80.709124 
L 683.876207 89.029921 
L 685.401075 92.296941 
L 686.925943 93.644745 
L 688.450811 92.465617 
L 689.975679 88.691649 
L 691.500547 82.887142 
L 693.025414 76.224658 
L 694.550282 70.341705 
L 696.07515 67.097541 
L 697.600018 68.269274 
L 699.124886 75.239326 
L 700.649754 88.730027 
L 702.174622 108.634519 
L 703.69949 133.977442 
L 709.798962 248.786549 
L 711.323829 269.413697 
L 712.848697 283.590919 
L 714.373565 291.056886 
L 715.898433 292.422191 
L 717.423301 289.025399 
L 718.948169 282.677557 
L 720.473037 275.342133 
L 721.997905 268.807778 
L 723.522773 264.411248 
L 725.047641 262.857191 
L 726.572509 264.162608 
L 728.097377 267.730057 
L 731.147112 277.350513 
L 732.67198 281.069512 
L 734.196848 282.885492 
L 735.721716 282.473155 
L 737.246584 280.029858 
L 738.771452 276.209639 
L 740.29632 271.961813 
L 741.821188 268.310426 
L 743.346056 266.122275 
L 744.870924 265.912894 
L 746.395792 267.731587 
L 747.92066 271.149854 
L 750.970395 279.335919 
L 752.495263 282.103193 
L 754.020131 282.927744 
L 755.544999 281.515273 
L 757.069867 278.095886 
L 760.119603 268.519601 
L 761.644471 264.684572 
L 763.169339 262.98665 
L 764.694207 264.11523 
L 766.219075 268.153575 
L 767.743942 274.482082 
L 769.26881 281.813713 
L 770.793678 288.362254 
L 772.318546 292.118471 
L 773.843414 291.187727 
L 775.368282 284.129404 
L 776.89315 270.236261 
L 778.418018 249.701197 
L 779.942886 223.638257 
L 784.51749 133.579352 
L 786.042357 107.878522 
L 787.567225 87.790709 
L 789.092093 74.337056 
L 790.616961 67.61875 
L 792.141829 66.85696 
L 793.666697 70.574522 
L 795.191565 76.883132 
L 796.716433 83.821867 
L 798.241301 89.685237 
L 799.766169 93.282977 
L 801.291037 94.088409 
L 802.815905 92.254475 
L 804.340772 88.502106 
L 807.390508 79.648511 
L 808.915376 76.722673 
L 810.440244 75.758666 
L 811.965112 76.890478 
L 813.48998 79.755409 
L 816.539716 87.454936 
L 818.064584 90.381986 
L 819.589452 91.668651 
L 821.11432 90.999322 
L 822.639187 88.524005 
L 824.164055 84.824925 
L 825.688923 80.786252 
L 827.213791 77.394785 
L 828.738659 75.51415 
L 830.263527 75.680991 
L 831.788395 77.967709 
L 833.313263 81.943121 
L 836.362999 91.238271 
L 837.887867 94.27455 
L 839.412735 94.929244 
L 840.937602 92.74269 
L 842.46247 87.87124 
L 847.037074 67.995187 
L 848.561942 65.259622 
L 850.08681 67.381086 
L 851.611678 75.53507 
L 853.136546 90.176561 
L 854.661414 110.930722 
L 856.186282 136.615388 
L 860.760885 223.182886 
L 862.285753 247.786165 
L 863.810621 267.263857 
L 865.335489 280.753282 
L 866.860357 288.1713 
L 868.385225 290.164615 
L 869.910093 287.951775 
L 871.434961 283.08915 
L 874.484697 271.743644 
L 876.009565 267.774152 
L 877.534433 265.869919 
L 879.0593 266.093372 
L 880.584168 268.066574 
L 882.109036 271.110833 
L 883.633904 274.422791 
L 885.158772 277.251252 
L 886.68364 279.041981 
L 888.208508 279.526653 
L 889.733376 278.744805 
L 891.258244 277.001466 
L 894.30798 272.600552 
L 895.832848 270.948848 
L 897.357715 270.135318 
L 898.882583 270.265733 
L 900.407451 271.232248 
L 901.932319 272.75451 
L 903.457187 274.453883 
L 904.982055 275.942635 
L 906.506923 276.908203 
L 908.031791 277.175099 
L 909.556659 276.732991 
L 911.081527 275.727367 
L 914.131263 273.111788 
L 915.65613 272.098952 
L 917.180998 271.584922 
L 918.705866 271.653749 
L 920.230734 272.256413 
L 921.755602 273.229321 
L 924.805338 275.325962 
L 926.330206 275.984468 
L 927.855074 276.183483 
L 929.379942 275.902273 
L 930.90481 275.227058 
L 933.954545 273.411537 
L 933.954545 273.411537 
" style="fill:none;stroke:#777777;stroke-linecap:square;stroke-width:1.5;"/>
   </g>
   <g id="patch_3">
    <path d="M 135 315 
L 135 43.2 
" style="fill:none;stroke:#ffffff;stroke-linecap:square;stroke-linejoin:miter;"/>
   </g>
   <g id="patch_4">
    <path d="M 972 315 
L 972 43.2 
" style="fill:none;stroke:#ffffff;stroke-linecap:square;stroke-linejoin:miter;"/>
   </g>
   <g id="patch_5">
    <path d="M 135 315 
L 972 315 
" style="fill:none;stroke:#ffffff;stroke-linecap:square;stroke-linejoin:miter;"/>
   </g>
   <g id="patch_6">
    <path d="M 135 43.2 
L 972 43.2 
" style="fill:none;stroke:#ffffff;stroke-linecap:square;stroke-linejoin:miter;"/>
   </g>
   <g id="legend_1">
    <g id="patch_7">
     <path d="M 807.514063 209.95625 
L 965 209.95625 
Q 967 209.95625 967 207.95625 
L 967 150.24375 
Q 967 148.24375 965 148.24375 
L 807.514063 148.24375 
Q 805.514063 148.24375 805.514063 150.24375 
L 805.514063 207.95625 
Q 805.514063 209.95625 807.514063 209.95625 
z
" style="fill:#e5e5e5;opacity:0.8;stroke:#cccccc;stroke-linejoin:miter;stroke-width:0.5;"/>
    </g>
    <g id="line2d_33">
     <path d="M 809.514063 156.342188 
L 829.514063 156.342188 
" style="fill:none;stroke:#e24a33;stroke-linecap:square;stroke-width:1.5;"/>
    </g>
    <g id="line2d_34"/>
    <g id="text_15">
     <!-- coefficients num (k): 1 -->
     <defs>
      <path d="M 48.78125 52.59375 
L 48.78125 44.1875 
Q 44.96875 46.296875 41.140625 47.34375 
Q 37.3125 48.390625 33.40625 48.390625 
Q 24.65625 48.390625 19.8125 42.84375 
Q 14.984375 37.3125 14.984375 27.296875 
Q 14.984375 17.28125 19.8125 11.734375 
Q 24.65625 6.203125 33.40625 6.203125 
Q 37.3125 6.203125 41.140625 7.25 
Q 44.96875 8.296875 48.78125 10.40625 
L 48.78125 2.09375 
Q 45.015625 0.34375 40.984375 -0.53125 
Q 36.96875 -1.421875 32.421875 -1.421875 
Q 20.0625 -1.421875 12.78125 6.34375 
Q 5.515625 14.109375 5.515625 27.296875 
Q 5.515625 40.671875 12.859375 48.328125 
Q 20.21875 56 33.015625 56 
Q 37.15625 56 41.109375 55.140625 
Q 45.0625 54.296875 48.78125 52.59375 
z
" id="DejaVuSans-99"/>
      <path d="M 30.609375 48.390625 
Q 23.390625 48.390625 19.1875 42.75 
Q 14.984375 37.109375 14.984375 27.296875 
Q 14.984375 17.484375 19.15625 11.84375 
Q 23.34375 6.203125 30.609375 6.203125 
Q 37.796875 6.203125 41.984375 11.859375 
Q 46.1875 17.53125 46.1875 27.296875 
Q 46.1875 37.015625 41.984375 42.703125 
Q 37.796875 48.390625 30.609375 48.390625 
z
M 30.609375 56 
Q 42.328125 56 49.015625 48.375 
Q 55.71875 40.765625 55.71875 27.296875 
Q 55.71875 13.875 49.015625 6.21875 
Q 42.328125 -1.421875 30.609375 -1.421875 
Q 18.84375 -1.421875 12.171875 6.21875 
Q 5.515625 13.875 5.515625 27.296875 
Q 5.515625 40.765625 12.171875 48.375 
Q 18.84375 56 30.609375 56 
z
" id="DejaVuSans-111"/>
      <path d="M 56.203125 29.59375 
L 56.203125 25.203125 
L 14.890625 25.203125 
Q 15.484375 15.921875 20.484375 11.0625 
Q 25.484375 6.203125 34.421875 6.203125 
Q 39.59375 6.203125 44.453125 7.46875 
Q 49.3125 8.734375 54.109375 11.28125 
L 54.109375 2.78125 
Q 49.265625 0.734375 44.1875 -0.34375 
Q 39.109375 -1.421875 33.890625 -1.421875 
Q 20.796875 -1.421875 13.15625 6.1875 
Q 5.515625 13.8125 5.515625 26.8125 
Q 5.515625 40.234375 12.765625 48.109375 
Q 20.015625 56 32.328125 56 
Q 43.359375 56 49.78125 48.890625 
Q 56.203125 41.796875 56.203125 29.59375 
z
M 47.21875 32.234375 
Q 47.125 39.59375 43.09375 43.984375 
Q 39.0625 48.390625 32.421875 48.390625 
Q 24.90625 48.390625 20.390625 44.140625 
Q 15.875 39.890625 15.1875 32.171875 
z
" id="DejaVuSans-101"/>
      <path d="M 37.109375 75.984375 
L 37.109375 68.5 
L 28.515625 68.5 
Q 23.6875 68.5 21.796875 66.546875 
Q 19.921875 64.59375 19.921875 59.515625 
L 19.921875 54.6875 
L 34.71875 54.6875 
L 34.71875 47.703125 
L 19.921875 47.703125 
L 19.921875 0 
L 10.890625 0 
L 10.890625 47.703125 
L 2.296875 47.703125 
L 2.296875 54.6875 
L 10.890625 54.6875 
L 10.890625 58.5 
Q 10.890625 67.625 15.140625 71.796875 
Q 19.390625 75.984375 28.609375 75.984375 
z
" id="DejaVuSans-102"/>
      <path d="M 9.421875 54.6875 
L 18.40625 54.6875 
L 18.40625 0 
L 9.421875 0 
z
M 9.421875 75.984375 
L 18.40625 75.984375 
L 18.40625 64.59375 
L 9.421875 64.59375 
z
" id="DejaVuSans-105"/>
      <path d="M 54.890625 33.015625 
L 54.890625 0 
L 45.90625 0 
L 45.90625 32.71875 
Q 45.90625 40.484375 42.875 44.328125 
Q 39.84375 48.1875 33.796875 48.1875 
Q 26.515625 48.1875 22.3125 43.546875 
Q 18.109375 38.921875 18.109375 30.90625 
L 18.109375 0 
L 9.078125 0 
L 9.078125 54.6875 
L 18.109375 54.6875 
L 18.109375 46.1875 
Q 21.34375 51.125 25.703125 53.5625 
Q 30.078125 56 35.796875 56 
Q 45.21875 56 50.046875 50.171875 
Q 54.890625 44.34375 54.890625 33.015625 
z
" id="DejaVuSans-110"/>
      <path d="M 18.3125 70.21875 
L 18.3125 54.6875 
L 36.8125 54.6875 
L 36.8125 47.703125 
L 18.3125 47.703125 
L 18.3125 18.015625 
Q 18.3125 11.328125 20.140625 9.421875 
Q 21.96875 7.515625 27.59375 7.515625 
L 36.8125 7.515625 
L 36.8125 0 
L 27.59375 0 
Q 17.1875 0 13.234375 3.875 
Q 9.28125 7.765625 9.28125 18.015625 
L 9.28125 47.703125 
L 2.6875 47.703125 
L 2.6875 54.6875 
L 9.28125 54.6875 
L 9.28125 70.21875 
z
" id="DejaVuSans-116"/>
      <path d="M 44.28125 53.078125 
L 44.28125 44.578125 
Q 40.484375 46.53125 36.375 47.5 
Q 32.28125 48.484375 27.875 48.484375 
Q 21.1875 48.484375 17.84375 46.4375 
Q 14.5 44.390625 14.5 40.28125 
Q 14.5 37.15625 16.890625 35.375 
Q 19.28125 33.59375 26.515625 31.984375 
L 29.59375 31.296875 
Q 39.15625 29.25 43.1875 25.515625 
Q 47.21875 21.78125 47.21875 15.09375 
Q 47.21875 7.46875 41.1875 3.015625 
Q 35.15625 -1.421875 24.609375 -1.421875 
Q 20.21875 -1.421875 15.453125 -0.5625 
Q 10.6875 0.296875 5.421875 2 
L 5.421875 11.28125 
Q 10.40625 8.6875 15.234375 7.390625 
Q 20.0625 6.109375 24.8125 6.109375 
Q 31.15625 6.109375 34.5625 8.28125 
Q 37.984375 10.453125 37.984375 14.40625 
Q 37.984375 18.0625 35.515625 20.015625 
Q 33.0625 21.96875 24.703125 23.78125 
L 21.578125 24.515625 
Q 13.234375 26.265625 9.515625 29.90625 
Q 5.8125 33.546875 5.8125 39.890625 
Q 5.8125 47.609375 11.28125 51.796875 
Q 16.75 56 26.8125 56 
Q 31.78125 56 36.171875 55.265625 
Q 40.578125 54.546875 44.28125 53.078125 
z
" id="DejaVuSans-115"/>
      <path id="DejaVuSans-32"/>
      <path d="M 8.5 21.578125 
L 8.5 54.6875 
L 17.484375 54.6875 
L 17.484375 21.921875 
Q 17.484375 14.15625 20.5 10.265625 
Q 23.53125 6.390625 29.59375 6.390625 
Q 36.859375 6.390625 41.078125 11.03125 
Q 45.3125 15.671875 45.3125 23.6875 
L 45.3125 54.6875 
L 54.296875 54.6875 
L 54.296875 0 
L 45.3125 0 
L 45.3125 8.40625 
Q 42.046875 3.421875 37.71875 1 
Q 33.40625 -1.421875 27.6875 -1.421875 
Q 18.265625 -1.421875 13.375 4.4375 
Q 8.5 10.296875 8.5 21.578125 
z
M 31.109375 56 
z
" id="DejaVuSans-117"/>
      <path d="M 52 44.1875 
Q 55.375 50.25 60.0625 53.125 
Q 64.75 56 71.09375 56 
Q 79.640625 56 84.28125 50.015625 
Q 88.921875 44.046875 88.921875 33.015625 
L 88.921875 0 
L 79.890625 0 
L 79.890625 32.71875 
Q 79.890625 40.578125 77.09375 44.375 
Q 74.3125 48.1875 68.609375 48.1875 
Q 61.625 48.1875 57.5625 43.546875 
Q 53.515625 38.921875 53.515625 30.90625 
L 53.515625 0 
L 44.484375 0 
L 44.484375 32.71875 
Q 44.484375 40.625 41.703125 44.40625 
Q 38.921875 48.1875 33.109375 48.1875 
Q 26.21875 48.1875 22.15625 43.53125 
Q 18.109375 38.875 18.109375 30.90625 
L 18.109375 0 
L 9.078125 0 
L 9.078125 54.6875 
L 18.109375 54.6875 
L 18.109375 46.1875 
Q 21.1875 51.21875 25.484375 53.609375 
Q 29.78125 56 35.6875 56 
Q 41.65625 56 45.828125 52.96875 
Q 50 49.953125 52 44.1875 
z
" id="DejaVuSans-109"/>
      <path d="M 31 75.875 
Q 24.46875 64.65625 21.28125 53.65625 
Q 18.109375 42.671875 18.109375 31.390625 
Q 18.109375 20.125 21.3125 9.0625 
Q 24.515625 -2 31 -13.1875 
L 23.1875 -13.1875 
Q 15.875 -1.703125 12.234375 9.375 
Q 8.59375 20.453125 8.59375 31.390625 
Q 8.59375 42.28125 12.203125 53.3125 
Q 15.828125 64.359375 23.1875 75.875 
z
" id="DejaVuSans-40"/>
      <path d="M 9.078125 75.984375 
L 18.109375 75.984375 
L 18.109375 31.109375 
L 44.921875 54.6875 
L 56.390625 54.6875 
L 27.390625 29.109375 
L 57.625 0 
L 45.90625 0 
L 18.109375 26.703125 
L 18.109375 0 
L 9.078125 0 
z
" id="DejaVuSans-107"/>
      <path d="M 8.015625 75.875 
L 15.828125 75.875 
Q 23.140625 64.359375 26.78125 53.3125 
Q 30.421875 42.28125 30.421875 31.390625 
Q 30.421875 20.453125 26.78125 9.375 
Q 23.140625 -1.703125 15.828125 -13.1875 
L 8.015625 -13.1875 
Q 14.5 -2 17.703125 9.0625 
Q 20.90625 20.125 20.90625 31.390625 
Q 20.90625 42.671875 17.703125 53.65625 
Q 14.5 64.65625 8.015625 75.875 
z
" id="DejaVuSans-41"/>
      <path d="M 11.71875 12.40625 
L 22.015625 12.40625 
L 22.015625 0 
L 11.71875 0 
z
M 11.71875 51.703125 
L 22.015625 51.703125 
L 22.015625 39.3125 
L 11.71875 39.3125 
z
" id="DejaVuSans-58"/>
     </defs>
     <g transform="translate(837.514063 159.842188)scale(0.1 -0.1)">
      <use xlink:href="#DejaVuSans-99"/>
      <use x="54.980469" xlink:href="#DejaVuSans-111"/>
      <use x="116.162109" xlink:href="#DejaVuSans-101"/>
      <use x="177.685547" xlink:href="#DejaVuSans-102"/>
      <use x="212.890625" xlink:href="#DejaVuSans-102"/>
      <use x="248.095703" xlink:href="#DejaVuSans-105"/>
      <use x="275.878906" xlink:href="#DejaVuSans-99"/>
      <use x="330.859375" xlink:href="#DejaVuSans-105"/>
      <use x="358.642578" xlink:href="#DejaVuSans-101"/>
      <use x="420.166016" xlink:href="#DejaVuSans-110"/>
      <use x="483.544922" xlink:href="#DejaVuSans-116"/>
      <use x="522.753906" xlink:href="#DejaVuSans-115"/>
      <use x="574.853516" xlink:href="#DejaVuSans-32"/>
      <use x="606.640625" xlink:href="#DejaVuSans-110"/>
      <use x="670.019531" xlink:href="#DejaVuSans-117"/>
      <use x="733.398438" xlink:href="#DejaVuSans-109"/>
      <use x="830.810547" xlink:href="#DejaVuSans-32"/>
      <use x="862.597656" xlink:href="#DejaVuSans-40"/>
      <use x="901.611328" xlink:href="#DejaVuSans-107"/>
      <use x="959.521484" xlink:href="#DejaVuSans-41"/>
      <use x="998.535156" xlink:href="#DejaVuSans-58"/>
      <use x="1032.226562" xlink:href="#DejaVuSans-32"/>
      <use x="1064.013672" xlink:href="#DejaVuSans-49"/>
     </g>
    </g>
    <g id="line2d_35">
     <path d="M 809.514063 171.020313 
L 829.514063 171.020313 
" style="fill:none;stroke:#348abd;stroke-linecap:square;stroke-width:1.5;"/>
    </g>
    <g id="line2d_36"/>
    <g id="text_16">
     <!-- coefficients num (k): 51 -->
     <g transform="translate(837.514063 174.520313)scale(0.1 -0.1)">
      <use xlink:href="#DejaVuSans-99"/>
      <use x="54.980469" xlink:href="#DejaVuSans-111"/>
      <use x="116.162109" xlink:href="#DejaVuSans-101"/>
      <use x="177.685547" xlink:href="#DejaVuSans-102"/>
      <use x="212.890625" xlink:href="#DejaVuSans-102"/>
      <use x="248.095703" xlink:href="#DejaVuSans-105"/>
      <use x="275.878906" xlink:href="#DejaVuSans-99"/>
      <use x="330.859375" xlink:href="#DejaVuSans-105"/>
      <use x="358.642578" xlink:href="#DejaVuSans-101"/>
      <use x="420.166016" xlink:href="#DejaVuSans-110"/>
      <use x="483.544922" xlink:href="#DejaVuSans-116"/>
      <use x="522.753906" xlink:href="#DejaVuSans-115"/>
      <use x="574.853516" xlink:href="#DejaVuSans-32"/>
      <use x="606.640625" xlink:href="#DejaVuSans-110"/>
      <use x="670.019531" xlink:href="#DejaVuSans-117"/>
      <use x="733.398438" xlink:href="#DejaVuSans-109"/>
      <use x="830.810547" xlink:href="#DejaVuSans-32"/>
      <use x="862.597656" xlink:href="#DejaVuSans-40"/>
      <use x="901.611328" xlink:href="#DejaVuSans-107"/>
      <use x="959.521484" xlink:href="#DejaVuSans-41"/>
      <use x="998.535156" xlink:href="#DejaVuSans-58"/>
      <use x="1032.226562" xlink:href="#DejaVuSans-32"/>
      <use x="1064.013672" xlink:href="#DejaVuSans-53"/>
      <use x="1127.636719" xlink:href="#DejaVuSans-49"/>
     </g>
    </g>
    <g id="line2d_37">
     <path d="M 809.514063 185.698438 
L 829.514063 185.698438 
" style="fill:none;stroke:#988ed5;stroke-linecap:square;stroke-width:1.5;"/>
    </g>
    <g id="line2d_38"/>
    <g id="text_17">
     <!-- coefficients num (k): 101 -->
     <g transform="translate(837.514063 189.198438)scale(0.1 -0.1)">
      <use xlink:href="#DejaVuSans-99"/>
      <use x="54.980469" xlink:href="#DejaVuSans-111"/>
      <use x="116.162109" xlink:href="#DejaVuSans-101"/>
      <use x="177.685547" xlink:href="#DejaVuSans-102"/>
      <use x="212.890625" xlink:href="#DejaVuSans-102"/>
      <use x="248.095703" xlink:href="#DejaVuSans-105"/>
      <use x="275.878906" xlink:href="#DejaVuSans-99"/>
      <use x="330.859375" xlink:href="#DejaVuSans-105"/>
      <use x="358.642578" xlink:href="#DejaVuSans-101"/>
      <use x="420.166016" xlink:href="#DejaVuSans-110"/>
      <use x="483.544922" xlink:href="#DejaVuSans-116"/>
      <use x="522.753906" xlink:href="#DejaVuSans-115"/>
      <use x="574.853516" xlink:href="#DejaVuSans-32"/>
      <use x="606.640625" xlink:href="#DejaVuSans-110"/>
      <use x="670.019531" xlink:href="#DejaVuSans-117"/>
      <use x="733.398438" xlink:href="#DejaVuSans-109"/>
      <use x="830.810547" xlink:href="#DejaVuSans-32"/>
      <use x="862.597656" xlink:href="#DejaVuSans-40"/>
      <use x="901.611328" xlink:href="#DejaVuSans-107"/>
      <use x="959.521484" xlink:href="#DejaVuSans-41"/>
      <use x="998.535156" xlink:href="#DejaVuSans-58"/>
      <use x="1032.226562" xlink:href="#DejaVuSans-32"/>
      <use x="1064.013672" xlink:href="#DejaVuSans-49"/>
      <use x="1127.636719" xlink:href="#DejaVuSans-48"/>
      <use x="1191.259766" xlink:href="#DejaVuSans-49"/>
     </g>
    </g>
    <g id="line2d_39">
     <path d="M 809.514063 200.376563 
L 829.514063 200.376563 
" style="fill:none;stroke:#777777;stroke-linecap:square;stroke-width:1.5;"/>
    </g>
    <g id="line2d_40"/>
    <g id="text_18">
     <!-- coefficients num (k): 151 -->
     <g transform="translate(837.514063 203.876563)scale(0.1 -0.1)">
      <use xlink:href="#DejaVuSans-99"/>
      <use x="54.980469" xlink:href="#DejaVuSans-111"/>
      <use x="116.162109" xlink:href="#DejaVuSans-101"/>
      <use x="177.685547" xlink:href="#DejaVuSans-102"/>
      <use x="212.890625" xlink:href="#DejaVuSans-102"/>
      <use x="248.095703" xlink:href="#DejaVuSans-105"/>
      <use x="275.878906" xlink:href="#DejaVuSans-99"/>
      <use x="330.859375" xlink:href="#DejaVuSans-105"/>
      <use x="358.642578" xlink:href="#DejaVuSans-101"/>
      <use x="420.166016" xlink:href="#DejaVuSans-110"/>
      <use x="483.544922" xlink:href="#DejaVuSans-116"/>
      <use x="522.753906" xlink:href="#DejaVuSans-115"/>
      <use x="574.853516" xlink:href="#DejaVuSans-32"/>
      <use x="606.640625" xlink:href="#DejaVuSans-110"/>
      <use x="670.019531" xlink:href="#DejaVuSans-117"/>
      <use x="733.398438" xlink:href="#DejaVuSans-109"/>
      <use x="830.810547" xlink:href="#DejaVuSans-32"/>
      <use x="862.597656" xlink:href="#DejaVuSans-40"/>
      <use x="901.611328" xlink:href="#DejaVuSans-107"/>
      <use x="959.521484" xlink:href="#DejaVuSans-41"/>
      <use x="998.535156" xlink:href="#DejaVuSans-58"/>
      <use x="1032.226562" xlink:href="#DejaVuSans-32"/>
      <use x="1064.013672" xlink:href="#DejaVuSans-49"/>
      <use x="1127.636719" xlink:href="#DejaVuSans-53"/>
      <use x="1191.259766" xlink:href="#DejaVuSans-49"/>
     </g>
    </g>
   </g>
  </g>
 </g>
 <defs>
  <clipPath id="p3562138bd5">
   <rect height="271.8" width="837" x="135" y="43.2"/>
  </clipPath>
 </defs>
</svg>
